<svg xmlns="http://www.w3.org/2000/svg" width="50" height="50" viewBox="0 0 50 50"><rect width="100%" height="100%" fill="#DDDDDD"/><path fill="#999999" d="m11.74 22.755-.23 1.36q.22-.05.41-.07.2-.02.39-.02.51 0 .9.15.39.16.66.43.26.27.4.63.13.36.13.78 0 .52-.18.94-.18.43-.51.74-.32.3-.76.47-.45.16-.97.16-.3 0-.58-.06-.27-.06-.51-.17-.24-.11-.45-.24-.2-.14-.37-.29l.35-.48q.1-.15.28-.15.11 0 .23.07.12.08.27.16.15.09.35.16.21.07.5.07.3 0 .54-.1.23-.1.38-.28.16-.17.24-.42.08-.24.08-.53 0-.53-.31-.83-.31-.3-.91-.3-.47 0-.95.17l-.69-.2.54-3.16h3.21v.48q0 .23-.15.38t-.5.15h-1.79Zm8.16 2.25q0 .85-.18 1.47-.19.63-.51 1.04-.32.41-.76.61t-.95.2q-.5 0-.94-.2-.43-.2-.75-.61t-.5-1.04q-.18-.62-.18-1.47 0-.86.18-1.48.18-.63.5-1.04.32-.41.75-.61.44-.2.94-.2.51 0 .95.2.44.2.76.61t.51 1.04q.18.62.18 1.48Zm-1.15 0q0-.71-.1-1.17-.11-.47-.28-.74-.17-.28-.4-.39-.22-.11-.47-.11-.23 0-.46.11-.22.11-.39.39-.17.27-.27.74-.1.46-.1 1.17 0 .7.1 1.17.1.46.27.73.17.28.39.39.23.11.46.11.25 0 .47-.11.23-.11.4-.39.17-.27.28-.73.1-.47.1-1.17Zm8.29 1.76-.59.58-1.52-1.52-1.54 1.53-.59-.58 1.54-1.54-1.47-1.47.59-.59 1.46 1.47 1.46-1.46.6.59-1.47 1.46 1.53 1.53Zm4.73-4.01-.23 1.36q.22-.05.42-.07.2-.02.38-.02.51 0 .91.15.39.16.65.43.27.27.4.63.14.36.14.78 0 .52-.18.94-.19.43-.51.74-.32.3-.77.47-.44.16-.96.16-.31 0-.58-.06-.28-.06-.52-.17-.24-.11-.44-.24-.21-.14-.37-.29l.34-.48q.11-.15.28-.15.12 0 .23.07.12.08.27.16.15.09.36.16.2.07.49.07.31 0 .54-.1.23-.1.39-.28.15-.17.23-.42.08-.24.08-.53 0-.53-.31-.83-.3-.3-.91-.3-.46 0-.95.17l-.69-.2.54-3.16h3.21v.48q0 .23-.15.38-.14.15-.5.15h-1.79Zm8.16 2.25q0 .85-.18 1.47-.18.63-.5 1.04-.33.41-.76.61-.44.2-.95.2t-.94-.2q-.44-.2-.76-.61t-.5-1.04q-.18-.62-.18-1.47 0-.86.18-1.48.18-.63.5-1.04.32-.41.76-.61.43-.2.94-.2t.95.2q.43.2.76.61.32.41.5 1.04.18.62.18 1.48Zm-1.15 0q0-.71-.1-1.17-.1-.47-.28-.74-.17-.28-.39-.39-.23-.11-.47-.11-.24 0-.46.11-.23.11-.4.39-.17.27-.27.74-.1.46-.1 1.17 0 .7.1 1.17.1.46.27.73.17.28.4.39.22.11.46.11.24 0 .47-.11.22-.11.39-.39.18-.27.28-.73.1-.47.1-1.17Z"/></svg>